<?xml version="1.0" encoding="utf-8"?>
<!-- Generator: Adobe Illustrator 22.0.0, SVG Export Plug-In . SVG Version: 6.00 Build 0)  -->
<svg version="1.1" id="Layer_1" xmlns="http://www.w3.org/2000/svg" xmlns:xlink="http://www.w3.org/1999/xlink" x="0px" y="0px"
	 viewBox="0 0 48 48" style="enable-background:new 0 0 48 48;" xml:space="preserve">
<style type="text/css">
	.st0{fill:#283593;}
	.st1{fill:#5C6BC0;}
	.st2{fill:#FFFFFF;}
	.st3{fill:#3949AB;}
</style>
<path class="st0" d="M22.9,3.3c0.7-0.4,1.5-0.4,2.2,0c3.4,1.9,13.4,7.6,16.8,9.4c0.7,0.4,1.1,1.1,1.1,1.8v18.9
	c0,0.8-0.4,1.5-1.1,1.8l-16.8,9.4c-0.7,0.4-1.5,0.4-2.2,0L6.1,35.3C5.4,34.9,5,34.2,5,33.4V14.6c0-0.8,0.4-1.5,1.1-1.8
	C9.4,10.8,19.6,5.2,22.9,3.3z"/>
<path class="st1" d="M5.3,34.4C5,34,5,33.7,5,33.3V14.5c0-0.8,0.4-1.5,1.1-1.8c3.3-1.9,13.4-7.5,16.8-9.4c0.7-0.4,1.6-0.4,2.3,0
	c3.3,1.9,13.4,7.5,16.7,9.3c0.3,0.2,0.5,0.3,0.7,0.6L5.3,34.4z"/>
<path class="st2" d="M24,10c-7.7,0-14,6.3-14,14s6.3,14,14,14s14-6.3,14-14S31.7,10,24,10z M24,31c-3.9,0-7-3.1-7-7c0-3.9,3.1-7,7-7
	s7,3.1,7,7C31,27.9,27.9,31,24,31z"/>
<path class="st3" d="M42.5,13.2C43,13.7,43,14.4,43,15c0,3.8,0,14.6,0,18.4c0,0.4-0.1,0.8-0.3,1.1L23.6,24L42.5,13.2z"/>
</svg>
