<?xml version="1.0" encoding="utf-8"?>
<!-- Generator: Adobe Illustrator 22.0.0, SVG Export Plug-In . SVG Version: 6.00 Build 0)  -->
<svg version="1.1" id="Layer_1" xmlns="http://www.w3.org/2000/svg" xmlns:xlink="http://www.w3.org/1999/xlink" x="0px" y="0px"
	 viewBox="0 0 600 600" style="enable-background:new 0 0 600 600;" xml:space="preserve">
<style type="text/css">
	.st0{fill:#679E63;}
	.st1{fill-rule:evenodd;clip-rule:evenodd;fill:#333333;}
	.st2{fill-rule:evenodd;clip-rule:evenodd;fill:#679E63;}
	.st3{clip-path:url(#XMLID_3_);}
	.st4{fill:none;}
	.st5{fill:url(#SVGID_1_);}
	.st6{fill:url(#SVGID_2_);}
	.st7{fill:url(#SVGID_3_);}
	.st8{fill:url(#SVGID_4_);}
	.st9{fill:url(#SVGID_5_);}
	.st10{fill:url(#SVGID_6_);}
</style>
<g>
	<path class="st0" d="M296.1,480c-1.9,0-3.9-0.5-5.6-1.5L272.8,468c-2.7-1.5-1.4-2-0.5-2.3c3.5-1.2,4.3-1.5,8-3.7
		c0.4-0.2,0.9-0.1,1.3,0.1l13.7,8.1c0.5,0.3,1.2,0.3,1.6,0l53.2-30.7c0.5-0.3,0.8-0.9,0.8-1.4v-61.4c0-0.6-0.3-1.2-0.8-1.5
		l-53.2-30.7c-0.5-0.3-1.1-0.3-1.6,0l-53.2,30.7c-0.5,0.3-0.8,0.9-0.8,1.5v61.4c0,0.6,0.3,1.1,0.8,1.4l14.6,8.4
		c7.9,4,12.8-0.7,12.8-5.4v-60.7c0-0.9,0.7-1.5,1.5-1.5h6.8c0.8,0,1.5,0.7,1.5,1.5v60.7c0,10.6-5.8,16.6-15.8,16.6
		c-3.1,0-5.5,0-12.3-3.3l-14-8c-3.4-2-5.6-5.7-5.6-9.7v-61.4c0-4,2.1-7.7,5.6-9.7l53.2-30.8c3.4-1.9,7.8-1.9,11.2,0l53.2,30.8
		c3.4,2,5.6,5.7,5.6,9.7v61.4c0,4-2.1,7.7-5.6,9.7l-53.2,30.7C300,479.5,298.1,480,296.1,480z"/>
	<path class="st0" d="M312.6,437.7c-23.3,0-28.2-10.7-28.2-19.7c0-0.9,0.7-1.5,1.5-1.5h6.9c0.8,0,1.4,0.6,1.5,1.3
		c1,7,4.1,10.5,18.2,10.5c11.2,0,16-2.5,16-8.5c0-3.4-1.4-6-18.8-7.7c-14.6-1.4-23.6-4.7-23.6-16.3c0-10.7,9.1-17.1,24.2-17.1
		c17.1,0,25.5,5.9,26.6,18.6c0,0.4-0.1,0.9-0.4,1.2c-0.3,0.3-0.7,0.5-1.1,0.5h-6.9c-0.7,0-1.3-0.5-1.5-1.2
		c-1.7-7.4-5.7-9.7-16.6-9.7c-12.2,0-13.7,4.3-13.7,7.5c0,3.9,1.7,5,18.2,7.2c16.4,2.2,24.1,5.2,24.1,16.7
		C339.1,431,329.4,437.7,312.6,437.7z"/>
</g>
<g>
	<path class="st0" d="M389.3,373.2c0,5.6-4.6,10.3-10.3,10.3c-5.6,0-10.3-4.6-10.3-10.3c0-5.8,4.8-10.3,10.3-10.3
		C384.6,363,389.3,367.4,389.3,373.2z M370.5,373.2c0,4.8,3.9,8.6,8.6,8.6c4.8,0,8.6-3.9,8.6-8.6c0-4.8-3.9-8.6-8.6-8.6
		C374.4,364.6,370.5,368.4,370.5,373.2z M375.2,367.5h4c1.4,0,4,0,4,3c0,2.1-1.4,2.6-2.2,2.8c1.6,0.1,1.7,1.1,1.9,2.6
		c0.1,0.9,0.3,2.5,0.6,3h-2.4c-0.1-0.5-0.4-3.5-0.4-3.6c-0.2-0.7-0.4-1-1.2-1h-2v4.6h-2.2V367.5z M377.4,372.5h1.8
		c1.5,0,1.7-1,1.7-1.6c0-1.6-1.1-1.6-1.7-1.6h-1.8V372.5z"/>
</g>
<path class="st1" d="M131.3,239.6c0-2.5-1.3-4.7-3.4-5.9l-56.4-32.5c-1-0.6-2-0.9-3.1-0.9c-0.1,0-0.5,0-0.6,0
	c-1.1,0-2.1,0.3-3.1,0.9L8.2,233.7c-2.1,1.2-3.4,3.5-3.4,5.9l0.1,87.5c0,1.2,0.6,2.3,1.7,2.9c1,0.6,2.3,0.6,3.4,0l33.5-19.2
	c2.1-1.3,3.4-3.5,3.4-5.9v-40.9c0-2.4,1.3-4.7,3.4-5.9l14.3-8.2c1.1-0.6,2.2-0.9,3.4-0.9c1.2,0,2.4,0.3,3.4,0.9l14.3,8.2
	c2.1,1.2,3.4,3.5,3.4,5.9v40.9c0,2.4,1.3,4.7,3.4,5.9L126,330c1.1,0.6,2.4,0.6,3.4,0c1-0.6,1.7-1.7,1.7-2.9L131.3,239.6z"/>
<path class="st1" d="M402.8,119.4c-1.1-0.6-2.3-0.6-3.4,0c-1,0.6-1.7,1.7-1.7,2.9V209c0,0.9-0.5,1.6-1.2,2.1c-0.7,0.4-1.6,0.4-2.4,0
	l-14.1-8.1c-2.1-1.2-4.7-1.2-6.8,0l-56.5,32.6c-2.1,1.2-3.4,3.5-3.4,5.9v65.2c0,2.4,1.3,4.7,3.4,5.9l56.5,32.6
	c2.1,1.2,4.7,1.2,6.8,0l56.5-32.6c2.1-1.2,3.4-3.5,3.4-5.9V144.1c0-2.5-1.3-4.8-3.5-6L402.8,119.4z M397.6,285.2
	c0,0.6-0.3,1.2-0.9,1.5l-19.4,11.2c-0.5,0.3-1.2,0.3-1.7,0l-19.4-11.2c-0.5-0.3-0.9-0.9-0.9-1.5v-22.4c0-0.6,0.3-1.2,0.9-1.5
	l19.4-11.2c0.5-0.3,1.2-0.3,1.7,0l19.4,11.2c0.5,0.3,0.9,0.9,0.9,1.5V285.2z"/>
<g>
	<path class="st1" d="M590.9,262.2c2.1-1.2,3.4-3.5,3.4-5.9v-15.8c0-2.4-1.3-4.7-3.4-5.9L534.7,202c-2.1-1.2-4.7-1.2-6.8,0
		l-56.4,32.6c-2.1,1.2-3.4,3.5-3.4,5.9v65.2c0,2.5,1.3,4.7,3.4,5.9l56.1,32c2.1,1.2,4.6,1.2,6.7,0l33.9-18.9c1.1-0.6,1.7-1.7,1.8-3
		c0-1.2-0.6-2.4-1.7-3l-56.8-32.6c-1.1-0.6-1.7-1.7-1.7-3v-20.4c0-1.2,0.6-2.3,1.7-3l17.7-10.2c1.1-0.6,2.4-0.6,3.4,0l17.7,10.2
		c1.1,0.6,1.7,1.7,1.7,3v16.1c0,1.2,0.7,2.3,1.7,3c1.1,0.6,2.4,0.6,3.4,0L590.9,262.2z"/>
	<path class="st2" d="M530.5,259.1c0.4-0.2,0.9-0.2,1.3,0l10.8,6.3c0.4,0.2,0.7,0.7,0.7,1.1V279c0,0.5-0.2,0.9-0.7,1.1l-10.8,6.3
		c-0.4,0.2-0.9,0.2-1.3,0l-10.8-6.3c-0.4-0.2-0.7-0.7-0.7-1.1v-12.5c0-0.5,0.2-0.9,0.7-1.1L530.5,259.1z"/>
</g>
<g>
	<defs>
		<path id="XMLID_143_" d="M225.7,202.4c-2.1-1.2-4.7-1.2-6.8,0l-56.1,32.4c-2.1,1.2-3.4,3.4-3.4,5.9v64.9c0,2.4,1.3,4.7,3.4,5.9
			l56.1,32.4c2.1,1.2,4.7,1.2,6.8,0l56.1-32.4c2.1-1.2,3.4-3.5,3.4-5.9v-64.9c0-2.4-1.3-4.7-3.4-5.9L225.7,202.4z"/>
	</defs>
	<linearGradient id="XMLID_2_" gradientUnits="userSpaceOnUse" x1="245.1349" y1="226.4992" x2="194.4096" y2="329.9789">
		<stop  offset="0" style="stop-color:#3F873F"/>
		<stop  offset="0.3296" style="stop-color:#3F8B3D"/>
		<stop  offset="0.6367" style="stop-color:#3E9638"/>
		<stop  offset="0.9341" style="stop-color:#3DA92E"/>
		<stop  offset="1" style="stop-color:#3DAE2B"/>
	</linearGradient>
	<use xlink:href="#XMLID_143_"  style="overflow:visible;fill-rule:evenodd;clip-rule:evenodd;fill:url(#XMLID_2_);"/>
	<clipPath id="XMLID_3_">
		<use xlink:href="#XMLID_143_"  style="overflow:visible;"/>
	</clipPath>
	<g class="st3">
		<path class="st4" d="M218.8,202.4l-56.3,32.4c-2.1,1.2-3.6,3.4-3.6,5.9v64.9c0,1.6,0.7,3.1,1.8,4.3l63.2-108.1
			C222.2,201.2,220.3,201.5,218.8,202.4z"/>
		<path class="st4" d="M224.2,344.5c0.5-0.2,1.1-0.4,1.6-0.7l56.2-32.4c2.1-1.2,3.5-3.5,3.5-5.9v-64.9c0-1.8-0.8-3.5-2.1-4.7
			L224.2,344.5z"/>
		<linearGradient id="SVGID_1_" gradientUnits="userSpaceOnUse" x1="213.7601" y1="280.6547" x2="356.0917" y2="175.4925">
			<stop  offset="0.1376" style="stop-color:#3F873F"/>
			<stop  offset="0.4016" style="stop-color:#52A044"/>
			<stop  offset="0.7129" style="stop-color:#64B749"/>
			<stop  offset="0.9081" style="stop-color:#6ABF4B"/>
		</linearGradient>
		<path class="st5" d="M281.9,234.8l-56.3-32.4c-0.6-0.3-1.2-0.6-1.8-0.7l-63.2,108.1c0.5,0.6,1.2,1.1,1.9,1.6l56.4,32.4
			c1.6,0.9,3.5,1.1,5.2,0.7l59.3-108.5C283,235.5,282.5,235.1,281.9,234.8z"/>
	</g>
	<g class="st3">
		<path class="st4" d="M285.5,305.5v-64.9c0-2.4-1.5-4.7-3.6-5.9l-56.3-32.4c-0.6-0.4-1.3-0.6-2.1-0.8l61.7,105.4
			C285.4,306.5,285.5,306,285.5,305.5z"/>
		<path class="st4" d="M162.5,234.8c-2.1,1.2-3.6,3.4-3.6,5.9v64.9c0,2.4,1.5,4.7,3.6,5.9l56.4,32.4c1.3,0.8,2.9,1,4.3,0.8
			l-60.4-110.1L162.5,234.8z"/>
		<linearGradient id="SVGID_2_" gradientUnits="userSpaceOnUse" x1="157.3972" y1="190.6785" x2="287.2153" y2="190.6785">
			<stop  offset="9.191646e-02" style="stop-color:#6ABF4B"/>
			<stop  offset="0.2871" style="stop-color:#64B749"/>
			<stop  offset="0.5984" style="stop-color:#52A044"/>
			<stop  offset="0.8624" style="stop-color:#3F873F"/>
		</linearGradient>
		<polygon class="st6" points="217.1,190.5 216.3,190.9 217.3,190.9 		"/>
		<linearGradient id="SVGID_3_" gradientUnits="userSpaceOnUse" x1="157.3972" y1="273.0563" x2="287.2153" y2="273.0563">
			<stop  offset="9.191646e-02" style="stop-color:#6ABF4B"/>
			<stop  offset="0.2871" style="stop-color:#64B749"/>
			<stop  offset="0.5984" style="stop-color:#52A044"/>
			<stop  offset="0.8624" style="stop-color:#3F873F"/>
		</linearGradient>
		<path class="st7" d="M282,311.4c1.6-0.9,2.9-2.5,3.3-4.3l-61.7-105.4c-1.6-0.3-3.3-0.1-4.8,0.8l-55.9,32.2l60.4,110.1
			c0.9-0.1,1.7-0.4,2.5-0.8L282,311.4z"/>
		<linearGradient id="SVGID_4_" gradientUnits="userSpaceOnUse" x1="157.3972" y1="310.1168" x2="287.2153" y2="310.1168">
			<stop  offset="9.191646e-02" style="stop-color:#6ABF4B"/>
			<stop  offset="0.2871" style="stop-color:#64B749"/>
			<stop  offset="0.5984" style="stop-color:#52A044"/>
			<stop  offset="0.8624" style="stop-color:#3F873F"/>
		</linearGradient>
		<polygon class="st8" points="287.2,310.3 286.8,309.7 286.8,310.5 		"/>
		<linearGradient id="SVGID_5_" gradientUnits="userSpaceOnUse" x1="157.3972" y1="326.8672" x2="287.2153" y2="326.8672">
			<stop  offset="9.191646e-02" style="stop-color:#6ABF4B"/>
			<stop  offset="0.2871" style="stop-color:#64B749"/>
			<stop  offset="0.5984" style="stop-color:#52A044"/>
			<stop  offset="0.8624" style="stop-color:#3F873F"/>
		</linearGradient>
		<path class="st9" d="M282,311.4l-56.2,32.4c-0.8,0.4-1.6,0.7-2.5,0.8l1.1,2l62.4-36.1v-0.9l-1.5-2.6
			C284.8,308.9,283.6,310.4,282,311.4z"/>
		<linearGradient id="SVGID_6_" gradientUnits="userSpaceOnUse" x1="306.1283" y1="223.4313" x2="226.0647" y2="386.761">
			<stop  offset="0" style="stop-color:#3F873F"/>
			<stop  offset="0.3296" style="stop-color:#3F8B3D"/>
			<stop  offset="0.6367" style="stop-color:#3E9638"/>
			<stop  offset="0.9341" style="stop-color:#3DA92E"/>
			<stop  offset="1" style="stop-color:#3DAE2B"/>
		</linearGradient>
		<path class="st10" d="M282,311.4l-56.2,32.4c-0.8,0.4-1.6,0.7-2.5,0.8l1.1,2l62.4-36.1v-0.9l-1.5-2.6
			C284.8,308.9,283.6,310.4,282,311.4z"/>
	</g>
</g>
</svg>
